# xmcd
#
# Track frame offsets:
#	150
#	12033
#	26181
#	40886
#	53739
#	68101
#	82347
#	97283
#	112312
#	124051
#	141944
#
# Disc length: 2132 seconds
#
# Revision: 0
# Processed by: cddbd v1.5.2PL0 Copyright (c) Steve Scherf et al.
# Submitted via: EZCDAudioConverter 1.3.4.1
#
DISCID=a308520b
DTITLE=Jukka Ässä - Ihmisten jälkeen
DYEAR=2014
DGENRE=
TTITLE0=Pelastus
TTITLE1=Kaikkeen tottuu
TTITLE2=30 vuotta myöhemmin
TTITLE3=Aavasaksa 1978
TTITLE4=Musiikki voi aikaa taivuttaa
TTITLE5=Brad Pittin silmät
TTITLE6=Suden hetki
TTITLE7=Pojat huutaa
TTITLE8=Sadan vuoden päästä
TTITLE9=Soitathan myöhemmin
TTITLE10=Uima-allas
EXTD=
EXTT0=
EXTT1=
EXTT2=
EXTT3=
EXTT4=
EXTT5=
EXTT6=
EXTT7=
EXTT8=
EXTT9=
EXTT10=
PLAYORDER=
